<?xml version="1.0" encoding="UTF-8" standalone="no"?>
<!-- Generator: Adobe Illustrator 23.0.1, SVG Export Plug-In . SVG Version: 6.00 Build 0)  -->

<svg
   version="1.1"
   id="Livello_1"
   x="0px"
   y="0px"
   width="512"
   height="512"
   viewBox="0 0 512 512"
   enable-background="new 0 0 300 300"
   xml:space="preserve"
   sodipodi:docname="Podcasts_(iOS).svg"
   inkscape:version="1.3.2 (091e20e, 2023-11-25, custom)"
   xmlns:inkscape="http://www.inkscape.org/namespaces/inkscape"
   xmlns:sodipodi="http://sodipodi.sourceforge.net/DTD/sodipodi-0.dtd"
   xmlns="http://www.w3.org/2000/svg"
   xmlns:svg="http://www.w3.org/2000/svg"><defs
   id="defs2" /><sodipodi:namedview
   id="namedview2"
   pagecolor="#ffffff"
   bordercolor="#000000"
   borderopacity="0.25"
   inkscape:showpageshadow="2"
   inkscape:pageopacity="0.0"
   inkscape:pagecheckerboard="0"
   inkscape:deskcolor="#d1d1d1"
   inkscape:zoom="0.7425"
   inkscape:cx="61.952862"
   inkscape:cy="318.51852"
   inkscape:window-width="1920"
   inkscape:window-height="1129"
   inkscape:window-x="-8"
   inkscape:window-y="-8"
   inkscape:window-maximized="1"
   inkscape:current-layer="Livello_1" />
<g
   id="XMLID_632_"
   transform="matrix(1.7041812,0,0,1.7092152,0.50716881,0)">
	<linearGradient
   id="XMLID_2_"
   gradientUnits="userSpaceOnUse"
   x1="150"
   y1="0"
   x2="150"
   y2="300">
		<stop
   offset="0"
   style="stop-color:#F452FF"
   id="stop1" />
		<stop
   offset="1"
   style="stop-color:#832BC1"
   id="stop2" />
	</linearGradient>
	<path
   id="XMLID_662_"
   fill-rule="evenodd"
   clip-rule="evenodd"
   fill="url(#XMLID_2_)"
   d="m 294.1,260 c -2.9,7.4 -9.6,17.8 -19.2,25.2 -5.5,4.2 -12.1,8.3 -21.1,11 -9.6,2.9 -21.5,3.8 -36.3,3.8 h -135 c -14.8,0 -26.6,-1 -36.3,-3.8 -9,-2.7 -15.6,-6.7 -21.1,-11 C 15.6,277.9 8.8,267.4 5.9,260 0.1,245.1 0,228.2 0,217.5 v 0 -135 0 C 0,71.8 0.1,54.9 5.9,40 8.8,32.6 15.5,22.2 25.1,14.8 30.6,10.6 37.2,6.5 46.2,3.8 55.9,1 67.7,0 82.5,0 v 0 h 135 v 0 c 14.8,0 26.6,1 36.3,3.8 9,2.7 15.6,6.7 21.1,11 9.5,7.3 16.3,17.8 19.2,25.2 5.9,14.9 5.9,31.9 5.9,42.5 v 135 c 0,10.7 -0.1,27.6 -5.9,42.5 z"
   style="fill:url(#XMLID_2_)" />
	<g
   id="g2">
		<path
   id="XMLID_657_"
   fill="#ffffff"
   d="m 175.7,181.1 c -0.4,-3.6 -1.6,-6.2 -4,-8.6 -4.5,-4.7 -12.4,-7.8 -21.7,-7.8 -9.3,0 -17.2,3 -21.7,7.8 -2.3,2.5 -3.6,5 -4,8.6 -0.8,7 -0.3,13 0.5,22.7 0.8,9.2 2.3,21.5 4.2,33.9 1.4,8.9 2.5,13.7 3.5,17.1 1.7,5.6 7.8,10.4 17.5,10.4 9.7,0 15.9,-4.9 17.5,-10.4 1,-3.4 2.1,-8.2 3.5,-17.1 1.9,-12.5 3.4,-24.7 4.2,-33.9 0.9,-9.7 1.3,-15.7 0.5,-22.7 z" />
		<path
   id="XMLID_655_"
   fill="#ffffff"
   d="m 174.6,130.1 c 0,13.6 -11,24.6 -24.6,24.6 -13.6,0 -24.6,-11 -24.6,-24.6 0,-13.6 11,-24.6 24.6,-24.6 13.6,0 24.6,11.1 24.6,24.6 z" />
		<path
   id="XMLID_653_"
   fill="#ffffff"
   d="M 149.7,33.2 C 92.3,33.4 45.3,80 44.5,137.4 c -0.6,46.5 29.1,86.3 70.6,100.9 1,0.4 2,-0.5 1.9,-1.5 -0.5,-3.6 -1.1,-7.2 -1.5,-10.8 -0.2,-1.3 -1,-2.3 -2.1,-2.9 -32.8,-14.3 -55.7,-47.2 -55.3,-85.3 0.5,-50 41.3,-90.7 91.2,-91.1 51.1,-0.4 92.8,41 92.8,92 0,37.7 -22.8,70.1 -55.3,84.4 -1.2,0.5 -2,1.6 -2.1,2.9 -0.5,3.6 -1,7.2 -1.5,10.8 -0.2,1.1 0.9,1.9 1.9,1.5 41.1,-14.4 70.6,-53.6 70.6,-99.6 C 255.5,80.5 208,33.1 149.7,33.2 Z" />
		<path
   id="XMLID_651_"
   fill="#ffffff"
   d="m 147.3,68.2 c -37.4,1.4 -67.4,32.3 -67.9,69.7 -0.3,24.6 12,46.4 30.9,59.3 0.9,0.6 2.2,-0.1 2.2,-1.2 -0.3,-4.3 -0.3,-8.1 -0.1,-12.1 0.1,-1.3 -0.4,-2.5 -1.4,-3.4 -11.5,-10.8 -18.5,-26.2 -18.1,-43.2 0.8,-30 24.9,-54.4 54.9,-55.6 32.6,-1.3 59.4,24.9 59.4,57.1 0,16.4 -7,31.2 -18.1,41.7 -0.9,0.9 -1.4,2.1 -1.4,3.4 0.2,3.9 0.1,7.7 -0.1,12 -0.1,1.1 1.2,1.9 2.2,1.2 18.6,-12.7 30.9,-34.2 30.9,-58.4 0.1,-39.8 -33.2,-72.1 -73.4,-70.5 z" />
	</g>
</g>
</svg>
